<svg xmlns="http://www.w3.org/2000/svg" xmlns:xlink="http://www.w3.org/1999/xlink" width="369" height="49" viewBox="0 0 369 49"><rect width="369.23076923076934" height="49.23076923076923" fill="transparent"></rect><path stroke="none" fill="#f77f56" d="M22.42 22.87L22.42 22.87Q22.42 27.08 21.29 30.35Q20.16 33.62 17.92 35.48Q15.67 37.33 12.31 37.33L12.31 37.33Q8.96 37.33 6.71 35.52Q4.45 33.70 3.32 30.46Q2.19 27.22 2.19 22.93L2.19 22.93Q2.19 18.71 3.32 15.42Q4.45 12.12 6.71 10.24Q8.96 8.35 12.31 8.35L12.31 8.35Q15.67 8.35 17.92 10.18Q20.16 12.02 21.29 15.29Q22.42 18.56 22.42 22.87ZM19.63 22.87L19.63 22.87Q19.63 17.11 17.93 13.94Q16.23 10.77 12.31 10.77L12.31 10.77Q8.39 10.77 6.69 13.97Q4.98 17.17 4.98 22.93L4.98 22.93Q4.98 28.68 6.75 31.79Q8.51 34.91 12.31 34.91L12.31 34.91Q16.21 34.91 17.92 31.78Q19.63 28.66 19.63 22.87ZM27.41 6.67L36.64 6.67L36.64 32.04Q36.64 33.72 37.71 34.42Q38.79 35.12 40.43 35.12L40.43 35.12Q41.46 35.12 42.37 34.91Q43.28 34.71 44.23 34.34L44.23 34.34L44.96 36.31Q44.16 36.70 42.93 37.02Q41.70 37.33 40.18 37.33L40.18 37.33Q37.64 37.33 35.87 35.95Q34.09 34.56 34.09 32.04L34.09 32.04L34.09 8.88L27.41 8.88L27.41 6.67ZM61.56 5.64L61.56 5.64Q62.54 5.64 63.12 6.24Q63.69 6.83 63.69 
7.67L63.69 7.67Q63.69 8.57 63.12 9.18Q62.54 9.78 61.56 9.78L61.56 9.78Q60.64 9.78 60.06 9.18Q59.49 8.57 59.49 7.67L59.49 7.67Q59.49 6.83 60.06 6.24Q60.64 5.64 61.56 5.64ZM54.81 15.38L63.96 15.38L63.96 34.71L70.22 34.71L70.22 36.92L54.61 36.92L54.61 34.71L61.42 34.71L61.42 17.60L54.81 17.60L54.81 15.38ZM92.92 15.38L95.59 15.38L87.57 36.92L84.64 36.92L76.72 15.38L79.36 15.38L86.22 34.34L92.92 15.38ZM119.45 27.18L104.80 27.18Q104.86 29.89 105.77 31.62Q106.69 33.35 108.18 34.17Q109.68 34.99 111.45 34.99L111.45 34.99Q113.15 34.99 114.47 34.50Q115.79 34.01 117.25 33.01L117.25 33.01L118.58 34.91Q117.09 36.06 115.21 36.70Q113.33 37.33 111.55 37.33L111.55 37.33Q108.57 37.33 106.45 35.94Q104.33 34.54 103.20 32.03Q102.07 29.52 102.07 26.17L102.07 26.17Q102.07 22.89 103.22 20.37Q104.37 17.85 106.41 16.42Q108.45 14.99 111.16 14.99L111.16 14.99Q115.08 14.99 117.29 17.79Q119.51 20.59 119.51 25.42L119.51 25.42Q119.51 25.97 119.49 26.41Q119.47 26.85 119.45 27.18L119.45 27.18ZM111.22 17.37L111.22 17.37Q108.62 17.37 106.84 19.22Q105.07 21.07 104.84 24.88L104.84 24.88L117.09 24.88Q117.01 21.09 115.38 19.23Q113.76 17.37 111.22 17.37ZM138.26 36.92L127.77 36.92L127.77 34.79L131.28 34.79L131.28 17.54L127.77 17.54L127.77 15.38L133.23 15.38L133.70 20.55Q134.97 17.93 136.75 16.44Q138.52 14.95 141.54 14.95L141.54 14.95Q142.38 14.95 143.05 15.08Q143.71 15.20 144.45 15.38L144.45 15.38L144.16 22.15L141.70 22.15L141.70 17.95L141.74 17.42Q141.50 17.39 141.23 17.39L141.23 17.39Q138.63 17.39 136.80 19.17Q134.97 20.94 133.83 24.78L133.83 24.78L133.83 34.79L138.26 34.79L138.26 36.92ZM194.07 16.43L194.07 16.43Q194.07 18.58 193.11 20.17Q192.14 21.76 190.50 22.78Q188.86 23.79 186.81 24.23L186.81 24.23L195.47 36.92L192.18 36.92L184.02 24.43L179.63 24.43L179.63 36.92L177.01 36.92L177.01 8.74L183.75 8.74Q188.82 8.74 191.45 10.71Q194.07 12.68 194.07 16.43ZM191.18 16.43L191.18 16.43Q191.18 13.52 189.51 12.26Q187.84 10.99 184.29 10.99L184.29 10.99L179.63 10.99L179.63 22.17L184.21 22.17Q187.51 22.17 189.34 20.87Q191.18 19.57 191.18 16.43ZM216.04 21.76L216.04 32.68Q216.04 33.99 216.49 34.59Q216.94 35.20 217.89 35.49L217.89 35.49L217.19 37.35Q215.96 37.17 214.99 36.45Q214.03 35.73 213.64 34.26L213.64 34.26Q211.34 37.33 206.99 37.33L206.99 37.33Q203.79 37.33 201.97 35.53Q200.14 33.72 200.14 30.71L200.14 30.71Q200.14 27.43 202.70 25.68Q205.25 23.94 210.13 23.94L210.13 23.94L213.39 23.94L213.39 21.85Q213.39 19.32 211.95 18.31Q210.50 17.29 208 17.29L208 17.29Q206.91 17.29 205.54 17.54Q204.16 17.78 202.48 18.38L202.48 18.38L201.74 16.29Q203.69 15.57 205.28 15.28Q206.87 14.99 208.37 14.99L208.37 14.99Q212.16 14.99 214.10 16.85Q216.04 18.71 216.04 21.76L216.04 21.76ZM207.49 35.30L207.49 35.30Q209.25 35.30 210.79 34.44Q212.33 33.58 213.39 32.04L213.39 32.04L213.39 25.89L209.83 25.89Q205.99 25.89 204.47 27.23Q202.95 28.57 202.95 30.79L202.95 30.79Q202.95 35.30 207.49 35.30ZM239.71 14.99L239.71 14.99Q240.59 14.99 241.54 15.39Q242.48 15.79 243.14 17.05Q243.79 18.30 243.79 20.86L243.79 20.86L243.79 36.92L241.29 36.92L241.29 21.35Q241.29 19.06 241.04 18.03Q240.78 17.01 239.47 17.01L239.47 17.01Q238.36 17.01 237.28 17.69Q236.21 18.38 235.24 19.94L235.24 19.94L235.24 36.92L232.41 36.92L232.41 21.35Q232.41 19.06 232.15 18.03Q231.90 17.01 230.58 17.01L230.58 17.01Q229.44 17.01 228.38 17.69Q227.32 18.38 226.36 19.94L226.36 19.94L226.36 36.92L223.90 36.92L223.90 15.38L225.99 15.38L226.13 17.99Q226.97 16.78 228.09 15.89Q229.21 14.99 230.87 14.99L230.87 14.99Q232.10 14.99 233.26 15.58Q234.42 16.16 234.97 17.93L234.97 17.93Q235.82 16.62 236.90 15.81Q237.99 14.99 239.71 14.99ZM257.58 35.02L257.58 35.02Q260.33 35.02 261.90 33.96Q263.47 32.90 263.47 31.18L263.47 31.18Q263.47 30.11 263.13 29.32Q262.79 28.53 261.67 27.91Q260.55 27.28 258.24 26.73L258.24 26.73Q255.92 26.15 254.23 25.46Q252.53 24.76 251.61 23.63Q250.69 22.50 250.69 20.64L250.69 20.64Q250.69 18.85 251.70 17.59Q252.72 16.33 254.49 15.66Q256.27 14.99 258.50 14.99L258.50 14.99Q261.03 14.99 262.90 15.67Q264.78 16.35 266.05 17.31L266.05 17.31L264.86 19.20Q263.67 18.36 262.22 17.81Q260.76 17.25 258.52 17.25L258.52 17.25Q255.67 17.25 254.52 18.15Q253.37 19.06 253.37 20.43L253.37 20.43Q253.37 21.50 253.94 22.18Q254.50 22.87 255.79 23.39Q257.09 23.92 259.28 24.51L259.28 24.51Q261.39 
25.07 262.97 25.85Q264.55 26.63 265.44 27.88Q266.32 29.13 266.32 31.12L266.32 31.12Q266.32 33.39 265.04 34.76Q263.75 36.12 261.74 36.73Q259.73 37.33 257.56 37.33L257.56 37.33Q254.71 37.33 252.75 36.49Q250.79 35.65 249.50 34.52L249.50 34.52L251.08 32.66Q252.35 33.72 254.01 34.37Q255.67 35.02 257.58 35.02ZM290.58 34.07L291.69 35.90Q290.63 36.59 289.11 36.96Q287.59 37.33 286.30 37.33L286.30 37.33Q283.06 
37.33 281.22 35.61Q279.38 33.89 279.38 31.28L279.38 31.28L279.38 17.52L274.30 17.52L274.30 15.38L279.38 15.38L279.38 10.42L281.93 10.11L281.93 15.38L289.52 15.38L289.17 17.52L281.93 17.52L281.93 31.22Q281.93 33.09 282.94 34.10Q283.96 35.12 286.36 35.12L286.36 35.12Q287.59 35.12 288.64 34.83Q289.68 34.54 290.58 34.07L290.58 34.07ZM316.37 27.18L301.72 27.18Q301.78 29.89 302.70 31.62Q303.61 33.35 305.11 
34.17Q306.61 34.99 308.37 34.99L308.37 34.99Q310.07 34.99 311.39 34.50Q312.72 34.01 314.17 33.01L314.17 33.01L315.51 34.91Q314.01 36.06 312.13 36.70Q310.26 37.33 308.47 37.33L308.47 37.33Q305.50 37.33 303.37 35.94Q301.25 34.54 300.12 32.03Q298.99 29.52 298.99 26.17L298.99 26.17Q298.99 22.89 300.14 20.37Q301.29 17.85 303.33 16.42Q305.37 14.99 308.08 14.99L308.08 14.99Q312.00 14.99 314.22 17.79Q316.43 20.59 316.43 25.42L316.43 25.42Q316.43 25.97 316.41 26.41Q316.39 26.85 316.37 27.18L316.37 27.18ZM308.14 17.37L308.14 17.37Q305.54 17.37 303.76 19.22Q301.99 21.07 301.76 24.88L301.76 24.88L314.01 24.88Q313.93 21.09 312.31 19.23Q310.69 17.37 308.14 17.37ZM337.58 17.70L337.58 6.32L340.12 6.67L340.12 36.92L337.91 36.92L337.58 33.95Q336.29 35.79 334.70 36.56Q333.11 37.33 331.43 37.33L331.43 37.33Q328.57 37.33 326.74 35.93Q324.90 34.52 324.02 32.01Q323.14 29.50 323.14 26.22L323.14 26.22Q323.14 22.99 324.13 20.46Q325.13 17.93 327.01 16.46Q328.88 14.99 331.55 14.99L331.55 14.99Q333.52 14.99 334.99 15.68Q336.47 16.37 337.58 17.70L337.58 17.70ZM332.18 17.19L332.18 17.19Q329.19 17.19 327.60 19.46Q326.01 21.72 326.01 26.19L326.01 26.19Q326.01 30.44 327.46 32.78Q328.90 35.12 331.75 35.12L331.75 35.12Q333.81 35.12 335.23 33.97Q336.66 32.82 337.58 31.45L337.58 31.45L337.58 20.25Q336.64 18.79 335.23 17.99Q333.83 17.19 332.18 17.19ZM364.43 34.07L365.54 35.90Q364.47 36.59 362.95 36.96Q361.44 37.33 360.14 37.33L360.14 37.33Q356.90 37.33 355.07 35.61Q353.23 33.89 353.23 31.28L353.23 31.28L353.23 17.52L348.14 17.52L348.14 15.38L353.23 15.38L353.23 10.42L355.77 10.11L355.77 15.38L363.36 15.38L363.02 17.52L355.77 17.52L355.77 31.22Q355.77 33.09 356.79 34.10Q357.81 35.12 360.21 35.12L360.21 35.12Q361.44 35.12 362.48 34.83Q363.53 34.54 364.43 34.07L364.43 34.07Z"></path></svg>